<svg xmlns="http://www.w3.org/2000/svg" width="100" height="100" viewBox="0 0 150 190">
    <path fill="red"
        d="M13.793 93.904c0-4.777 1.707-5.972 5.46-5.972h16.893c4.948 0 5.46.683 5.631 3.413v1.194h5.289l-.17-1.876c-.17-3.413-1.707-7.507-9.384-7.507h-18.6c-7.337 0-10.408 3.071-10.408 10.749v4.948c0 7.68 3.071 10.92 10.408 10.92h18.087c8.361 0 10.067-3.412 10.067-8.359v-1.535h-5.119l-.17 1.193c0 3.072-.683 3.924-5.631 3.924H19.253c-3.753 0-5.46-1.193-5.46-6.143v-4.949zM101.496 93.904c0-4.777 1.537-5.972 5.461-5.972h16.893c4.777 0 5.461.683 5.631 3.413v1.194h5.119v-1.876c-.172-3.413-1.707-7.507-9.557-7.507h-18.428c-7.336 0-10.579 3.071-10.579 10.749v4.948c0 7.68 3.243 10.92 10.579 10.92h18.088c8.359 0 10.066-3.412 10.066-8.359v-1.535h-5.289v1.193c-.17 3.072-.854 3.924-5.631 3.924h-16.893c-3.924 0-5.461-1.193-5.461-6.143v-4.949h.001zM85.628 102.436c-1.877-2.389-3.242-2.9-3.242-2.9 3.583 0 7.849-2.047 7.849-6.484v-1.877c0-5.63-2.218-7.849-10.579-7.849H53.039v26.106h5.46V100.9H75.05c2.389 0 2.56.34 5.29 3.412l4.437 5.119h6.825l-5.974-6.995zm-.853-9.556c0 2.218-1.195 3.242-5.631 3.242H58.499v-7.849h20.305c4.777 0 5.972.682 5.972 3.242v1.365h-.001z" />
</svg>